<svg width="144" height="136" viewBox="0 0 144 136" fill="none" xmlns="http://www.w3.org/2000/svg">
<path d="M144 11C144.001 9.62061 143.73 8.25459 143.202 6.97998C142.675 5.70537 141.902 4.54715 140.927 3.57149C139.952 2.59584 138.794 1.82188 137.52 1.29383C136.245 0.765784 134.879 0.493995 133.5 0.493995H72C70.4087 0.493995 68.8826 1.12614 67.7574 2.25135C66.6322 3.37657 66 4.9027 66 6.49399V57.494C66 58.1236 65.8019 58.7373 65.4337 59.2481C65.0656 59.7589 64.546 60.1409 63.9487 60.34C63.3514 60.5392 62.7065 60.5453 62.1055 60.3575C61.5045 60.1698 60.9778 59.7977 60.6 59.294L49.2 44.09C49.0603 43.9037 48.8791 43.7525 48.6708 43.6484C48.4626 43.5442 48.2329 43.49 48 43.49C47.7671 43.49 47.5375 43.5442 47.3292 43.6484C47.1209 43.7525 46.9397 43.9037 46.8 44.09L35.4 59.282C35.0222 59.7857 34.4955 60.1578 33.8945 60.3455C33.2935 60.5333 32.6487 60.5272 32.0513 60.328C31.454 60.1289 30.9344 59.7469 30.5663 59.2361C30.1981 58.7253 30 58.1116 30 57.482V6.48199C30 4.8907 29.3679 3.36457 28.2427 2.23935C27.1174 1.11414 25.5913 0.481995 24 0.481995H10.5C9.11962 0.481993 7.75277 0.754178 6.47768 1.28298C5.20258 1.81178 4.04427 2.58681 3.06902 3.56373C2.09377 4.54066 1.32072 5.70029 0.794108 6.97629C0.267493 8.25229 -0.00235096 9.6196 1.543e-05 11V125C0.00160509 127.784 1.10836 130.454 3.07715 132.423C5.04594 134.392 7.71573 135.498 10.5 135.5H133.5C136.284 135.498 138.954 134.392 140.923 132.423C142.892 130.454 143.998 127.784 144 125V11ZM25.5 102.494C25.5016 101.302 25.9764 100.159 26.8202 99.3159C27.6639 98.4733 28.8076 98 30 98H99C100.193 98 101.338 98.4741 102.182 99.318C103.026 100.162 103.5 101.307 103.5 102.5C103.5 103.693 103.026 104.838 102.182 105.682C101.338 106.526 100.193 107 99 107H30C29.4086 107 28.8229 106.883 28.2766 106.657C27.7302 106.43 27.2339 106.098 26.8159 105.68C26.398 105.261 26.0666 104.765 25.8408 104.218C25.615 103.671 25.4992 103.085 25.5 102.494ZM117 35H87C85.8065 35 84.662 34.5259 83.818 33.682C82.9741 32.8381 82.5 31.6935 82.5 30.5C82.5 29.3065 82.9741 28.1619 83.818 27.318C84.662 26.4741 85.8065 26 87 26H117C118.193 26 119.338 26.4741 120.182 27.318C121.026 28.1619 121.5 29.3065 121.5 30.5C121.5 31.6935 121.026 32.8381 120.182 33.682C119.338 34.5259 118.193 35 117 35ZM121.5 54.5C121.5 55.6935 121.026 56.8381 120.182 57.682C119.338 58.5259 118.193 59 117 59H87C85.8065 59 84.662 58.5259 83.818 57.682C82.9741 56.8381 82.5 55.6935 82.5 54.5C82.5 53.3065 82.9741 52.1619 83.818 51.318C84.662 50.4741 85.8065 50 87 50H117C118.192 50 119.336 50.4733 120.18 51.3159C121.024 52.1585 121.498 53.3016 121.5 54.494V54.5ZM117 74C118.193 74 119.338 74.4741 120.182 75.318C121.026 76.1619 121.5 77.3065 121.5 78.5C121.5 79.6935 121.026 80.8381 120.182 81.682C119.338 82.5259 118.193 83 117 83H30C28.8065 83 27.6619 82.5259 26.818 81.682C25.9741 80.8381 25.5 79.6935 25.5 78.5C25.5 77.3065 25.9741 76.1619 26.818 75.318C27.6619 74.4741 28.8065 74 30 74H117Z" fill="url(#paint0_linear_2864_10922)"/>
<defs>
<linearGradient id="paint0_linear_2864_10922" x1="0" y1="0.481995" x2="47.1812" y2="163.518" gradientUnits="userSpaceOnUse">
<stop stop-color="#8A9BE5"/>
<stop offset="0.994792" stop-color="#212740"/>
</linearGradient>
</defs>
</svg>
